<svg width="37" height="23" viewBox="0 0 37 23" fill="none" xmlns="http://www.w3.org/2000/svg">
<path fill-rule="evenodd" clip-rule="evenodd" d="M0 0H5.43827L7.87501 2.46062C8.07862 2.12434 8.3245 1.80681 8.61268 1.51581C10.5765 -0.467245 13.7605 -0.467245 15.7243 1.51581L26.0876 11.9806V0.0450358H29.6372V15.5651L37 23H31.5617L29.221 20.6363C29.0174 20.9726 28.7715 21.2901 28.4833 21.5811C27.712 22.36 26.7702 22.8506 25.7525 23H24.1025C23.1026 22.833 22.143 22.36 21.3717 21.5811L11.0016 11.1094V23H7.45198V7.525L0 0ZM25.7642 17.1456C25.9355 17.3186 26.0433 17.5315 26.0876 17.7547V18.2263C26.0433 18.4494 25.9355 18.6623 25.7642 18.8353C25.3021 19.3019 24.5529 19.3019 24.0908 18.8353L11.3301 5.94952C11.1503 5.76721 11.0408 5.54089 11.0016 5.30498V5.07793H10.9856C10.9926 4.78172 11.108 4.48763 11.3318 4.26158C11.7939 3.79498 12.5431 3.79499 13.0051 4.26159L25.7642 17.1456Z" fill="#616161"/>
</svg>
